<?xml version="1.0" encoding="UTF-8"?>
<!-- Created with Inkscape (http://www.inkscape.org/) -->

<svg
   xmlns="http://www.w3.org/2000/svg"
   version="1.1"
   width="128"
   height="128">
   <style type ="text/css">
     .outer {
     fill: #333
     }
     .inner {
     fill: #dbdbdb
     }
   </style>
  <g transform="translate(0,-924.36218)"
     id="layer1">
    <path class = "outer"
       d="M 68.214953,75.750248 C 45.467375,98.497826 66.99211,78.328658 35.218242,83.361144 3.4443749,88.393631 30.148229,100.92414 1.4846093,86.319297 -27.179011,71.714453 -1.3454834,85.953076 -15.950327,57.289456 -30.555171,28.625836 -34.22045,57.894851 -29.187963,26.120984 -24.155477,-5.6528838 -29.714213,23.316237 -6.9666356,0.56865951 15.780942,-22.178918 -13.188179,-16.620182 18.585688,-21.652668 50.359556,-26.685154 21.09054,-23.019876 49.754161,-8.4150317 78.41778,6.1898118 64.179158,-19.643715 78.784001,9.0199045 93.388845,37.683525 80.858335,10.97967 75.825849,42.753538 70.793363,74.527405 90.962531,53.002671 68.214953,75.750248 z"
       transform="matrix(0.98962106,0.14370161,-0.14370161,0.98962106,43.06773,949.79149)" />
    <path class="inner"
       d="M 78.374626,83.007159 C 62.126357,101.69267 77.573786,85.052518 53.445592,90.61892 29.317398,96.185322 50.493422,104.3764 27.701453,94.697519 4.9094849,85.018636 25.508728,94.567925 12.758743,73.340762 0.00875778,52.113598 -1.2376702,74.784376 0.92438845,50.116986 3.0864469,25.449598 0.37005031,47.991534 16.61832,29.306024 32.86659,10.620513 10.920231,16.440746 35.048426,10.874343 59.17662,5.3079404 36.898551,9.6903352 59.690519,19.369218 c 22.791969,9.678883 10.474801,-9.3947942 23.224787,11.83237 12.749985,21.227162 1.697778,1.393695 -0.464281,26.061083 -2.162059,24.66739 12.171871,7.058977 -4.076399,25.744488 z"
       transform="matrix(0.9269716,-0.37513151,0.37513151,0.9269716,1.9043025,955.34213)"/>
  </g>
</svg>
